<?xml version="1.0" standalone="no"?>
<!DOCTYPE svg PUBLIC "-//W3C//DTD SVG 20010904//EN"
 "http://www.w3.org/TR/2001/REC-SVG-20010904/DTD/svg10.dtd">
<svg version="1.0" xmlns="http://www.w3.org/2000/svg"
 width="455.000000pt" height="552.000000pt" viewBox="0 0 455.000000 552.000000"
 preserveAspectRatio="xMidYMid meet">
<metadata>
Created by potrace 1.16, written by Peter Selinger 2001-2019
</metadata>
<g transform="translate(0.000000,552.000000) scale(0.100000,-0.100000)"
fill="#000000" stroke="none">
<path d="M738 5423 c-25 -49 -79 -153 -121 -233 -42 -80 -195 -374 -341 -655
l-266 -509 0 -1688 0 -1688 515 0 515 0 0 50 0 50 -480 0 -480 0 0 1678 0
1677 480 280 c264 154 480 285 480 292 0 10 -204 616 -235 696 l-15 37 1305 0
1305 0 0 -270 0 -270 40 0 40 0 0 320 0 320 -1348 0 -1348 0 -46 -87z m112
-421 c78 -231 90 -276 79 -287 -10 -9 -564 -336 -683 -403 -8 -4 166 340 274
543 21 39 79 152 131 252 51 100 96 179 100 175 3 -4 48 -130 99 -280z"/>
<path d="M1788 4773 c-25 -49 -79 -153 -121 -233 -42 -80 -195 -374 -341 -655
l-266 -509 0 -1688 0 -1688 1730 0 1730 0 0 2430 0 2430 -1343 0 -1343 0 -46
-87z m2662 -2343 l0 -2330 -1660 0 -1660 0 0 1678 0 1677 483 283 483 282 -52
153 c-29 83 -86 250 -127 370 l-74 217 1303 0 1304 0 0 -2330z m-2550 1922
c78 -231 90 -276 79 -287 -10 -9 -564 -336 -683 -403 -8 -4 166 340 274 543
21 39 79 152 131 252 51 100 96 179 100 175 3 -4 48 -130 99 -280z"/>
<path d="M1627 3408 c-39 -23 -77 -86 -77 -128 0 -46 40 -109 84 -133 l41 -22
1250 -9 1249 -9 43 23 c47 25 83 84 83 136 0 45 -40 105 -85 128 -39 21 -56
21 -740 27 -385 4 -950 7 -1255 7 -553 2 -555 1 -593 -20z"/>
<path d="M1595 2426 c-44 -19 -82 -68 -90 -116 -10 -57 22 -119 78 -151 l42
-24 1230 0 c1210 0 1231 0 1270 20 60 30 88 78 83 143 -5 61 -28 96 -78 123
-33 18 -86 19 -1270 19 -1004 -1 -1241 -3 -1265 -14z"/>
<path d="M1621 1370 c-75 -18 -125 -78 -125 -150 0 -54 18 -87 68 -124 27 -21
33 -21 1244 -24 1143 -2 1219 -1 1252 15 107 55 107 204 0 267 -35 21 -44 21
-1220 23 -652 0 -1200 -3 -1219 -7z"/>
</g>
</svg>
