<svg width="16" height="16" viewBox="0 0 16 16" fill="none" xmlns="http://www.w3.org/2000/svg">
<path d="M4.34847 0.641433C4.15044 0.44898 3.83389 0.453502 3.64143 0.651533L0.505229 3.87864C0.312776 4.07667 0.317298 4.39322 0.515329 4.58568C0.713361 4.77813 1.02991 4.77361 1.22236 4.57558L4.0101 1.70703L6.87864 4.49477C7.07667 4.68722 7.39322 4.6827 7.58568 4.48467C7.77813 4.28664 7.77361 3.97009 7.57558 3.77764L4.34847 0.641433ZM4.69995 14.9929L4.49995 0.992858L3.50005 1.00714L3.70005 15.0071L4.69995 14.9929Z" fill="black"/>
<rect x="9.5" y="13.5" width="3" height="1" rx="0.5" fill="black" stroke="black"/>
<rect x="9.5" y="9.5" width="4" height="1" rx="0.5" fill="black" stroke="black"/>
<rect x="9.5" y="5.5" width="5" height="1" rx="0.5" fill="black" stroke="black"/>
<rect x="9.5" y="1.5" width="6" height="1" rx="0.5" fill="black" stroke="black"/>
</svg>
